<svg width="242" height="374" viewBox="0 0 242 374" fill="none" xmlns="http://www.w3.org/2000/svg">
<path d="M117.762 247.515V218.649H135.656V221.825H120.968V231.474H133.749V234.649H120.968V247.515H117.762Z" fill="#706E7A"/>
<path d="M140.717 247.515V217H143.801V247.515H140.717Z" fill="#706E7A"/>
<path d="M158.766 247.928C156.683 247.928 154.817 247.447 153.167 246.485C151.544 245.495 150.259 244.162 149.312 242.485C148.365 240.78 147.892 238.842 147.892 236.67C147.892 234.526 148.365 232.615 149.312 230.938C150.259 229.234 151.544 227.9 153.167 226.938C154.817 225.976 156.683 225.495 158.766 225.495C160.849 225.495 162.702 225.976 164.325 226.938C165.975 227.9 167.26 229.234 168.179 230.938C169.126 232.615 169.599 234.526 169.599 236.67C169.599 238.842 169.126 240.78 168.179 242.485C167.26 244.162 165.975 245.495 164.325 246.485C162.702 247.447 160.849 247.928 158.766 247.928ZM158.766 244.959C160.254 244.959 161.566 244.601 162.702 243.887C163.865 243.172 164.771 242.196 165.42 240.959C166.069 239.694 166.394 238.265 166.394 236.67C166.394 235.076 166.069 233.674 165.42 232.464C164.771 231.227 163.865 230.251 162.702 229.536C161.566 228.821 160.254 228.464 158.766 228.464C157.278 228.464 155.953 228.821 154.79 229.536C153.626 230.251 152.72 231.227 152.071 232.464C151.422 233.701 151.097 235.103 151.097 236.67C151.097 238.265 151.422 239.694 152.071 240.959C152.72 242.196 153.626 243.172 154.79 243.887C155.953 244.601 157.278 244.959 158.766 244.959Z" fill="#706E7A"/>
<path d="M178.278 247.515L170.893 225.948H174.18L179.414 242.031L185.054 229.289H186.92L192.479 241.825L197.754 225.948H201L193.656 247.515H191.83L185.906 233.701L180.144 247.515H178.278Z" fill="#706E7A"/>
<path d="M41 247.515V218.65H52.9696C54.6467 218.65 56.148 219.062 57.4734 219.887C58.8259 220.684 59.8944 221.784 60.6788 223.186C61.4903 224.56 61.8961 226.113 61.8961 227.845C61.8961 229.632 61.4903 231.241 60.6788 232.67C59.8944 234.072 58.8259 235.199 57.4734 236.052C56.148 236.876 54.6467 237.289 52.9696 237.289H46.8428V247.515H41ZM46.8022 231.887H52.361C53.3618 231.887 54.2004 231.515 54.8766 230.773C55.5799 230.003 55.9316 229.055 55.9316 227.928C55.9316 226.801 55.5799 225.88 54.8766 225.165C54.2004 224.423 53.3618 224.052 52.361 224.052H46.8022V231.887Z" fill="#FF941A"/>
<path d="M74.2157 247.928C72.4304 247.928 70.8209 247.433 69.3872 246.443C67.9536 245.454 66.804 244.107 65.9384 242.402C65.0998 240.698 64.6805 238.759 64.6805 236.588C64.6805 234.361 65.0998 232.409 65.9384 230.732C66.804 229.028 67.9671 227.694 69.4278 226.732C70.9156 225.77 72.5927 225.289 74.4591 225.289C75.9739 225.289 77.2994 225.605 78.4355 226.237C79.5716 226.842 80.4777 227.639 81.154 228.629V225.742H86.6722V247.515H81.1134V244.588C80.356 245.55 79.3687 246.347 78.1514 246.979C76.9612 247.612 75.6493 247.928 74.2157 247.928ZM75.7169 243.021C77.367 243.021 78.706 242.43 79.7339 241.247C80.7618 240.065 81.2757 238.512 81.2757 236.588C81.2757 234.663 80.7618 233.11 79.7339 231.928C78.706 230.746 77.367 230.155 75.7169 230.155C74.0939 230.155 72.7685 230.746 71.7406 231.928C70.7397 233.11 70.2393 234.663 70.2393 236.588C70.2393 238.512 70.7397 240.065 71.7406 241.247C72.7685 242.43 74.0939 243.021 75.7169 243.021Z" fill="#FF941A"/>
<path d="M95.0598 257L99.0361 247.639L89.2981 225.742H95.5872L101.024 238.773C101.268 239.351 101.511 240.024 101.755 240.794C101.863 240.491 101.958 240.203 102.039 239.928C102.147 239.625 102.255 239.309 102.363 238.979L107.029 225.742H113.4L104.392 247.515L100.7 257H95.0598Z" fill="#FF941A"/>
<path d="M95 127H98V175H95V127Z" fill="#B1B0B8"/>
<path d="M89 127H92V175H89V127Z" fill="#B1B0B8"/>
<path d="M108 127H110V175H108V127Z" fill="#B1B0B8"/>
<path d="M113 127H117V175H113V127Z" fill="#B1B0B8"/>
<path d="M80 127H85V175H80V127Z" fill="#B1B0B8"/>
<path d="M101 127H106V175H101V127Z" fill="#B1B0B8"/>
<path d="M151 175H147V127H151V175Z" fill="#B1B0B8"/>
<path d="M156 175H154V127H156V175Z" fill="#B1B0B8"/>
<path d="M136 175H134V127H136V175Z" fill="#B1B0B8"/>
<path d="M123 175H121V127H123V175Z" fill="#B1B0B8"/>
<path d="M131 175H127V127H131V175Z" fill="#B1B0B8"/>
<path d="M164 175H160V127H164V175Z" fill="#B1B0B8"/>
<path d="M144 175H139V127H144V175Z" fill="#B1B0B8"/>
<path d="M172 149V153H71V149H172Z" fill="#585666"/>
<path fill-rule="evenodd" clip-rule="evenodd" d="M71 117H69V119V129H71V119L81 119V117H71Z" fill="#FF941A"/>
<path fill-rule="evenodd" clip-rule="evenodd" d="M172 185L174 185L174 183L174 173L172 173L172 183L162 183L162 185L172 185Z" fill="#FF941A"/>
<path fill-rule="evenodd" clip-rule="evenodd" d="M174 119L174 117L172 117L162 117L162 119L172 119L172 129L174 129L174 119Z" fill="#FF941A"/>
<path fill-rule="evenodd" clip-rule="evenodd" d="M69 183L69 185L71 185L81 185L81 183L71 183L71 173L69 173L69 183Z" fill="#FF941A"/>
<path fill-rule="evenodd" clip-rule="evenodd" d="M242 0V7.12381V42.7429H234.882V7.12381L199.294 7.12381V0H234.882H242ZM0 374V366.876V331.257H7.11765L7.11764 366.876H42.7059V374H7.11764H0ZM234.882 374H242V331.257H234.882V366.876H199.294V374H234.882ZM1.41859e-05 0H7.11766V1.04719e-05L42.7059 1.51475e-05L42.7059 7.12382L7.11766 7.12382L7.11765 42.7429H6.71251e-06L1.41859e-05 0Z" fill="#F2F2F5"/>
</svg>
